<svg enable-background="new 0 0 512 512" viewBox="0 0 512 512" xmlns="http://www.w3.org/2000/svg"><path d="m101 7.5h340v497h-340z" fill="#f2464f"/><path d="m421 7.5h20v497h-20z" fill="#db3747"/><path d="m126 32.5h290v447h-290z" fill="#71db9e"/><path d="m396.67 32.5h19.333v447h-19.333z" fill="#62c473"/><path d="m262.122 167.146c0 25.2-11.82 39.53-28.22 44.24v194.07c0 3.59-1.46 6.84-3.81 9.19s-5.6 3.81-9.19 3.81c-7.18 0-13-5.82-13-13v-194.07c-16.39-4.71-28.22-19.04-28.22-44.24 0-31.48 18.46-68 41.22-68 22.77 0 41.22 36.52 41.22 68z" fill="#facb57"/><path d="m362.318 100.366v78.85c0 9.37-3.8 17.85-9.94 23.99-3.12 3.12-6.85 5.64-10.99 7.36v194.89c0 3.59-1.45 6.84-3.81 9.19-2.35 2.35-5.6 3.81-9.19 3.81-7.18 0-13-5.82-13-13v-194.89c-12.29-5.1-20.93-17.22-20.93-31.35v-78.85c0-1.89.76-3.59 2-4.82 1.24-1.24 2.94-2 4.83-2h54.2c3.77 0 6.83 3.05 6.83 6.82z" fill="#facb57"/><g fill="#8b97a6"><path d="m140.046 111.44h-58.092c-6.05 0-10.954-4.904-10.954-10.954v-2.091c0-6.05 4.904-10.954 10.954-10.954h58.091c6.05 0 10.954 4.904 10.954 10.954v2.091c.001 6.05-4.903 10.954-10.953 10.954z"/><path d="m140.046 174.064h-58.092c-6.05 0-10.954-4.904-10.954-10.954v-2.091c0-6.05 4.904-10.954 10.954-10.954h58.091c6.05 0 10.954 4.904 10.954 10.954v2.091c.001 6.05-4.903 10.954-10.953 10.954z"/><path d="m140.046 236.688h-58.092c-6.05 0-10.954-4.904-10.954-10.954v-2.091c0-6.05 4.904-10.954 10.954-10.954h58.091c6.05 0 10.954 4.904 10.954 10.954v2.091c.001 6.05-4.903 10.954-10.953 10.954z"/><path d="m140.046 299.312h-58.092c-6.05 0-10.954-4.904-10.954-10.954v-2.091c0-6.05 4.904-10.954 10.954-10.954h58.091c6.05 0 10.954 4.904 10.954 10.954v2.091c.001 6.05-4.903 10.954-10.953 10.954z"/><path d="m140.046 361.936h-58.092c-6.05 0-10.954-4.904-10.954-10.954v-2.091c0-6.05 4.904-10.954 10.954-10.954h58.091c6.05 0 10.954 4.904 10.954 10.954v2.091c.001 6.049-4.903 10.954-10.953 10.954z"/><path d="m140.046 424.56h-58.092c-6.05 0-10.954-4.904-10.954-10.954v-2.091c0-6.05 4.904-10.954 10.954-10.954h58.091c6.05 0 10.954 4.904 10.954 10.954v2.091c.001 6.049-4.903 10.954-10.953 10.954z"/></g><path d="m141 87.44h-20c5.523 0 10 5.372 10 12s-4.477 12-10 12h20c5.523 0 10-5.372 10-12s-4.477-12-10-12z" fill="#67707a"/><path d="m141 150.064h-20c5.523 0 10 5.372 10 12s-4.477 12-10 12h20c5.523 0 10-5.372 10-12s-4.477-12-10-12z" fill="#67707a"/><path d="m141 212.688h-20c5.523 0 10 5.372 10 12s-4.477 12-10 12h20c5.523 0 10-5.372 10-12s-4.477-12-10-12z" fill="#67707a"/><path d="m141 275.312h-20c5.523 0 10 5.372 10 12s-4.477 12-10 12h20c5.523 0 10-5.372 10-12s-4.477-12-10-12z" fill="#67707a"/><path d="m141 337.936h-20c5.523 0 10 5.372 10 12s-4.477 12-10 12h20c5.523 0 10-5.372 10-12s-4.477-12-10-12z" fill="#67707a"/><path d="m141 400.56h-20c5.523 0 10 5.372 10 12 0 6.627-4.477 12-10 12h20c5.523 0 10-5.372 10-12 0-6.627-4.477-12-10-12z" fill="#67707a"/><path d="m200.402 216.684v188.772c0 11.304 9.196 20.5 20.5 20.5 5.472 0 10.619-2.133 14.494-6.007 3.873-3.874 6.006-9.021 6.006-14.493v-188.771c18.019-7.592 28.22-25.32 28.22-49.538 0-16.688-4.881-35.201-13.058-49.523-9.563-16.751-22.229-25.977-35.662-25.977-13.43 0-26.093 9.226-35.658 25.976-8.179 14.324-13.062 32.838-13.062 49.524.001 24.214 10.203 41.943 28.22 49.537zm20.5-110.038c16.387 0 33.72 31.098 33.72 60.5 0 19.658-8.094 32.81-22.791 37.032-3.214.923-5.429 3.863-5.429 7.208v194.069c0 1.466-.573 2.847-1.613 3.887-1.041 1.04-2.421 1.613-3.887 1.613-3.033 0-5.5-2.467-5.5-5.5v-194.068c0-3.344-2.214-6.284-5.428-7.208-14.697-4.225-22.792-17.376-22.792-37.032.001-29.403 17.333-60.501 33.72-60.501z"/><path d="m307.888 215.232v190.224c0 11.304 9.196 20.5 20.5 20.5 5.472 0 10.619-2.133 14.483-5.996 3.88-3.865 6.017-9.016 6.017-14.504v-24.203c0-4.143-3.358-7.5-7.5-7.5s-7.5 3.357-7.5 7.5v24.203c0 1.471-.569 2.847-1.613 3.887-1.041 1.04-2.421 1.613-3.887 1.613-3.033 0-5.5-2.468-5.5-5.5v-194.89c0-3.031-1.825-5.765-4.625-6.927-9.905-4.111-16.305-13.698-16.305-24.424v-78.17h7.181v49.967c0 4.143 3.358 7.5 7.5 7.5s7.5-3.357 7.5-7.5v-49.967h8.5v49.967c0 4.143 3.358 7.5 7.5 7.5s7.5-3.357 7.5-7.5v-49.967h7.179v78.17c0 7.058-2.75 13.694-7.744 18.688-2.474 2.474-5.355 4.404-8.563 5.737-2.799 1.162-4.623 3.896-4.623 6.926v136.933c0 4.143 3.358 7.5 7.5 7.5s7.5-3.357 7.5-7.5v-132.271c3.205-1.825 6.149-4.074 8.793-6.718 7.827-7.826 12.137-18.229 12.137-29.294v-78.85c0-7.896-6.428-14.32-14.33-14.32h-15.31c-.013 0-.026-.002-.039-.002s-.026.002-.039.002h-23.423c-.013 0-.026-.002-.039-.002s-.026.002-.039.002h-15.312c-3.826 0-7.424 1.489-10.113 4.177-2.719 2.699-4.217 6.301-4.217 10.144v78.85c.001 15.074 8.069 28.714 20.931 36.015z"/><path d="m441 56.5c-4.142 0-7.5 3.357-7.5 7.5v433h-325v-12.499c0-4.143-3.358-7.5-7.5-7.5s-7.5 3.357-7.5 7.5v19.999c0 4.143 3.358 7.5 7.5 7.5h340c4.142 0 7.5-3.357 7.5-7.5v-440.5c0-4.143-3.358-7.5-7.5-7.5z"/><path d="m441 0h-340c-4.142 0-7.5 3.357-7.5 7.5v72.44h-11.545c-10.176 0-18.455 8.278-18.455 18.454v2.091c0 10.176 8.279 18.455 18.455 18.455h11.545v23.624h-11.545c-10.176 0-18.455 8.278-18.455 18.454v2.091c0 10.176 8.279 18.455 18.455 18.455h11.545v23.624h-11.545c-10.176 0-18.455 8.278-18.455 18.454v2.091c0 10.176 8.279 18.455 18.455 18.455h11.545v23.623h-11.545c-10.176 0-18.455 8.279-18.455 18.455v2.091c0 10.176 8.279 18.454 18.455 18.454h11.545v23.624h-11.545c-10.176 0-18.455 8.279-18.455 18.455v2.091c0 10.176 8.279 18.454 18.455 18.454h11.545v23.624h-11.545c-10.176 0-18.455 8.279-18.455 18.455v2.091c0 10.176 8.279 18.454 18.455 18.454h11.545v16.271c0 4.143 3.358 7.5 7.5 7.5s7.5-3.357 7.5-7.5v-16.27h10v47.44c0 4.143 3.358 7.5 7.5 7.5h290c4.142 0 7.5-3.357 7.5-7.5v-447c0-4.143-3.358-7.5-7.5-7.5h-290c-4.142 0-7.5 3.357-7.5 7.5v47.44h-10v-64.94h325v12.5c0 4.143 3.358 7.5 7.5 7.5s7.5-3.357 7.5-7.5v-20c0-4.143-3.358-7.5-7.5-7.5zm-362.5 100.485v-2.091c0-1.904 1.55-3.454 3.455-3.454h58.091c1.905 0 3.455 1.55 3.455 3.454v2.091c0 1.905-1.55 3.455-3.455 3.455h-58.091c-1.905 0-3.455-1.549-3.455-3.455zm30 18.455h10v23.624h-10zm-30 44.169v-2.091c0-1.904 1.55-3.454 3.455-3.454h58.091c1.905 0 3.455 1.55 3.455 3.454v2.091c0 1.905-1.55 3.455-3.455 3.455h-13.949c-.033 0-.064-.005-.097-.005s-.064.004-.097.005h-24.807c-.033 0-.064-.005-.097-.005s-.064.004-.097.005h-18.947c-1.905 0-3.455-1.549-3.455-3.455zm30 18.455h10v23.624h-10zm-30 44.169v-2.091c0-1.904 1.55-3.454 3.455-3.454h19.007c.013 0 .026.002.039.002s.026-.002.039-.002h24.923c.013 0 .026.002.039.002s.026-.002.039-.002h14.007c1.905 0 3.455 1.55 3.455 3.454v2.091c0 1.905-1.55 3.455-3.455 3.455h-58.093c-1.905 0-3.455-1.549-3.455-3.455zm30 18.455h10v23.623h-10zm-30 44.169v-2.091c0-1.905 1.55-3.455 3.455-3.455h58.091c1.905 0 3.455 1.55 3.455 3.455v2.091c0 1.904-1.55 3.454-3.455 3.454h-14.007c-.013 0-.026-.002-.039-.002s-.026.002-.039.002h-24.923c-.013 0-.026-.002-.039-.002s-.026.002-.039.002h-19.005c-1.905.001-3.455-1.549-3.455-3.454zm30 18.455h10v23.624h-10zm-30 44.169v-2.091c0-1.905 1.55-3.455 3.455-3.455h18.949c.033 0 .064.005.097.005s.064-.004.097-.005h24.807c.033 0 .064.005.097.005s.064-.004.097-.005h13.949c1.905 0 3.455 1.55 3.455 3.455v2.091c0 1.904-1.55 3.454-3.455 3.454h-58.093c-1.905.001-3.455-1.549-3.455-3.454zm30 18.455h10v23.624h-10zm-30 44.169v-2.091c0-1.905 1.55-3.455 3.455-3.455h58.091c1.905 0 3.455 1.55 3.455 3.455v2.091c0 1.904-1.55 3.454-3.455 3.454h-58.091c-1.905.001-3.455-1.549-3.455-3.454zm55-373.605h275v432h-275v-39.94h6.545c10.176 0 18.455-8.278 18.455-18.454v-2.091c0-10.176-8.279-18.455-18.455-18.455h-6.545v-23.624h6.545c10.176 0 18.455-8.278 18.455-18.454v-2.091c0-10.176-8.279-18.455-18.455-18.455h-6.545v-23.624h6.545c10.176 0 18.455-8.278 18.455-18.454v-2.091c0-10.176-8.279-18.455-18.455-18.455h-6.545v-23.623h6.545c10.176 0 18.455-8.279 18.455-18.455v-2.091c0-10.176-8.279-18.454-18.455-18.454h-6.545v-23.624h6.545c10.176 0 18.455-8.279 18.455-18.455v-2.091c0-10.176-8.279-18.454-18.455-18.454h-6.545v-23.625h6.545c10.176 0 18.455-8.279 18.455-18.455v-2.091c0-10.176-8.279-18.454-18.455-18.454h-6.545z"/></svg>